<svg width="75" height="73" viewBox="0 0 75 73" fill="none" xmlns="http://www.w3.org/2000/svg">
<g clip-path="url(#clip0_67_217)">
<path d="M69.214 5H65.9175V6.022C61.3285 7.02119 60.6687 11.1674 60.4097 12.7517C60.2867 13.5011 60.0371 14.9668 59.7277 16.7621H2.32925C0.0581527 16.7621 -0.196144 18.8278 0.10034 19.9707L6.83393 48.9049C7.12925 50.0478 8.37261 50.9809 9.59136 50.9809H59.9164C61.1281 50.9809 62.116 51.9401 62.116 53.1195C62.116 54.299 61.1281 55.2582 59.9164 55.2582H4.98589C4.40314 55.2582 3.84425 55.4835 3.43219 55.8846C3.02012 56.2857 2.78862 56.8297 2.78862 57.3969C2.78862 57.9641 3.02012 58.5081 3.43219 58.9092C3.84425 59.3102 4.40314 59.5356 4.98589 59.5356H7.83354C6.45859 60.2744 5.31236 61.3586 4.5143 62.6753C3.71623 63.9919 3.29554 65.4928 3.29604 67.0215H5.49331C5.49331 70.5631 8.44643 73.4375 12.0851 73.4375C15.7238 73.4375 18.6769 70.5631 18.6769 67.0215H20.8742C20.8744 65.4927 20.4535 63.9918 19.6553 62.6752C18.857 61.3585 17.7106 60.2744 16.3355 59.5356H47.3832C46.0081 60.2744 44.8617 61.3585 44.0634 62.6752C43.2651 63.9918 42.8442 65.4927 42.8445 67.0215H45.0418C45.0743 68.7025 45.7832 70.3039 47.0161 71.4815C48.249 72.6591 49.9074 73.3188 51.6347 73.3188C53.3621 73.3188 55.0204 72.6591 56.2533 71.4815C57.4862 70.3039 58.1951 68.7025 58.2277 67.0215H60.425C60.4251 65.4929 60.0042 63.9921 59.2062 62.6756C58.4082 61.359 57.2622 60.2747 55.8875 59.5356H59.9187C61.6667 59.5347 63.3428 58.8584 64.5788 57.6554C65.8148 56.4523 66.5096 54.8209 66.5105 53.1195C66.5103 52.2768 66.3397 51.4424 66.0082 50.6639C65.6767 49.8854 65.191 49.178 64.5786 48.5823C63.9663 47.9865 63.2394 47.5139 62.4395 47.1916C61.6395 46.8692 60.7822 46.7034 59.9164 46.7035H59.0996L61.9097 29.6968C62.6925 25.205 64.38 15.5017 64.7761 13.0882C64.9753 11.8688 65.1687 11.0122 65.9175 10.532V11.4149H69.214C69.5048 11.414 69.7833 11.3012 69.989 11.1012C70.1947 10.9013 70.3108 10.6302 70.3121 10.3473V6.06991C70.3114 5.78653 70.1956 5.51492 69.9898 5.31444C69.7841 5.11395 69.5052 5.0009 69.214 5V5ZM12.0851 70.2301C11.2111 70.2292 10.3732 69.8908 9.75517 69.2893C9.13716 68.6878 8.78955 67.8722 8.78862 67.0215H15.3804C15.3795 67.872 15.032 68.6874 14.4143 69.2889C13.7965 69.8904 12.9589 70.2289 12.0851 70.2301V70.2301ZM51.6359 70.2301C50.7617 70.2295 49.9235 69.8913 49.3052 69.2897C48.6869 68.6881 48.3392 67.8724 48.3382 67.0215H54.9324C54.9308 67.872 54.583 68.6872 53.9651 69.2886C53.3473 69.89 52.5097 70.2286 51.6359 70.2301V70.2301ZM48.9324 22.1025C48.9711 21.8126 49.1153 21.5459 49.339 21.3508C49.5627 21.1557 49.8509 21.0452 50.1511 21.0395H57.1085C57.7132 21.0395 58.1339 21.514 58.039 22.0968L57.35 26.3981C57.2585 26.9798 56.6855 27.4555 56.0796 27.4555H49.4433C49.3036 27.4591 49.1647 27.4332 49.0362 27.3796C48.9077 27.3259 48.7927 27.2459 48.699 27.1448C48.6054 27.0438 48.5353 26.9243 48.4937 26.7944C48.452 26.6645 48.4398 26.5274 48.4578 26.3924L48.9324 22.1025V22.1025ZM47.75 32.7959C47.7893 32.5063 47.9338 32.2399 48.1573 32.045C48.3808 31.85 48.6686 31.7393 48.9687 31.7328H55.3941C56 31.7328 56.4195 32.2073 56.3281 32.7902L55.8089 36.0227C55.7164 36.6044 55.1445 37.0801 54.5386 37.0801H48.3781C48.2384 37.0833 48.0997 37.0571 47.9715 37.0034C47.8432 36.9496 47.7283 36.8695 47.6347 36.7686C47.5412 36.6677 47.4711 36.5483 47.4293 36.4186C47.3875 36.2889 47.375 36.1519 47.3925 36.017L47.75 32.7959V32.7959ZM5.7019 26.4175L4.58862 22.0774C4.44331 21.5048 4.82065 21.0395 5.42651 21.0395H13.6988C14.3058 21.0395 14.8531 21.5174 14.9175 22.1025L15.391 26.3936C15.4085 26.5283 15.396 26.6652 15.3543 26.7948C15.3126 26.9245 15.2426 27.0438 15.1491 27.1447C15.0557 27.2456 14.941 27.3257 14.8128 27.3796C14.6847 27.4334 14.5461 27.4597 14.4066 27.4566H7.06948C6.46479 27.4566 5.84839 26.9878 5.7019 26.4175V26.4175ZM9.53511 37.0801C8.93042 37.0801 8.31401 36.6124 8.1687 36.0421L7.32964 32.7719C7.18315 32.1993 7.55815 31.734 8.16401 31.734H14.8777C15.4835 31.734 16.032 32.2119 16.0964 32.797L16.4527 36.0182C16.4705 36.153 16.4581 36.2899 16.4164 36.4196C16.3748 36.5493 16.3048 36.6688 16.2113 36.7697C16.1178 36.8707 16.003 36.9508 15.8748 37.0045C15.7466 37.0583 15.6079 37.0845 15.4683 37.0812H9.53511V37.0801ZM16.53 46.7047H12.0007C11.3925 46.7047 10.7796 46.237 10.6332 45.6667L9.79409 42.3965C9.64878 41.8239 10.0238 41.3586 10.6308 41.3586H15.9394C16.5453 41.3586 17.0937 41.8365 17.1605 42.4216L17.5144 45.6427C17.5322 45.7775 17.5198 45.9144 17.4782 46.0441C17.4365 46.1737 17.3665 46.2931 17.273 46.394C17.1795 46.4948 17.0647 46.5748 16.9364 46.6284C16.8082 46.6821 16.6696 46.7081 16.53 46.7047V46.7047ZM29.9972 45.6348C29.996 45.9185 29.8795 46.1903 29.6731 46.3908C29.4667 46.5912 29.1872 46.7041 28.8957 46.7047H23.164C22.8639 46.6986 22.576 46.588 22.3526 46.393C22.1292 46.1979 21.9851 45.9313 21.9464 45.6416L21.5902 42.4205C21.572 42.2857 21.5841 42.1487 21.6255 42.0189C21.667 41.8891 21.7368 41.7696 21.8302 41.6685C21.9237 41.5675 22.0385 41.4874 22.1668 41.4337C22.2951 41.38 22.4338 41.354 22.5734 41.3574H28.8957C29.1874 41.3574 29.4672 41.4701 29.6738 41.6707C29.8803 41.8712 29.9966 42.1434 29.9972 42.4273V45.6348V45.6348ZM29.9972 36.0113C29.996 36.2951 29.8795 36.5669 29.6731 36.7673C29.4667 36.9678 29.1872 37.0806 28.8957 37.0812H22.1011C21.4964 37.0812 20.9503 36.6033 20.8824 36.0182L20.5285 32.797C20.5105 32.6623 20.5227 32.5254 20.5642 32.3956C20.6057 32.2659 20.6756 32.1465 20.769 32.0455C20.8624 31.9445 20.9771 31.8644 21.1053 31.8106C21.2335 31.7569 21.3721 31.7307 21.5117 31.734H28.8957C29.1874 31.734 29.4672 31.8466 29.6738 32.0472C29.8803 32.2478 29.9966 32.5199 29.9972 32.8039V36.0113V36.0113ZM29.9972 26.3867C29.996 26.6705 29.8795 26.9423 29.6731 27.1427C29.4667 27.3432 29.1872 27.456 28.8957 27.4566H21.0417C20.7415 27.4509 20.4533 27.3404 20.2296 27.1453C20.006 26.9502 19.8617 26.6835 19.823 26.3936L19.3496 22.1025C19.3318 21.9677 19.3442 21.8308 19.3858 21.7011C19.4275 21.5713 19.4974 21.4519 19.5909 21.351C19.6844 21.25 19.7992 21.1699 19.9274 21.1161C20.0557 21.0624 20.1943 21.0362 20.3339 21.0395H28.8968C29.1886 21.0395 29.4684 21.1521 29.6749 21.3527C29.8814 21.5533 29.9978 21.8254 29.9984 22.1094V26.3867H29.9972ZM41.9023 45.6416C41.8634 45.9314 41.719 46.198 41.4954 46.3931C41.2718 46.5881 40.9837 46.6987 40.6835 46.7047H35.5039C35.2124 46.7041 34.9331 46.5912 34.7269 46.3907C34.5207 46.1902 34.4044 45.9184 34.4035 45.6348V42.4262C34.4041 42.1424 34.5203 41.8705 34.7265 41.6699C34.9328 41.4694 35.2123 41.3566 35.5039 41.3563H41.2742C41.8789 41.3563 42.3242 41.8342 42.2585 42.4193L41.9023 45.6416ZM42.964 36.017C42.9251 36.3068 42.7807 36.5734 42.5571 36.7685C42.3335 36.9635 42.0455 37.0741 41.7453 37.0801H35.5039C35.2124 37.0795 34.9331 36.9666 34.7269 36.7661C34.5207 36.5656 34.4044 36.2938 34.4035 36.0102V32.8016C34.4041 32.5178 34.5203 32.2459 34.7265 32.0453C34.9328 31.8448 35.2123 31.732 35.5039 31.7317H42.3359C42.9417 31.7317 43.3859 32.2096 43.3191 32.7948L42.964 36.017ZM44.0257 26.3936C43.9868 26.6834 43.8425 26.95 43.6189 27.145C43.3952 27.3401 43.1072 27.4506 42.807 27.4566H35.5039C35.2124 27.456 34.9331 27.3431 34.7269 27.1427C34.5207 26.9422 34.4044 26.6704 34.4035 26.3867V22.1094C34.4041 21.8256 34.5203 21.5536 34.7265 21.3531C34.9328 21.1526 35.2123 21.0398 35.5039 21.0395H43.516C44.1218 21.0395 44.566 21.5174 44.5015 22.1025L44.0257 26.3936V26.3936ZM52.5007 46.7047V46.6967L52.4914 46.7047H47.3164C47.2824 46.7047 47.2531 46.6887 47.2191 46.6841C47.2132 46.6454 47.2132 46.6066 47.2062 46.5655L47.1546 46.6705C47.1689 46.6742 47.1834 46.6772 47.198 46.6796C46.6578 46.6191 46.271 46.1845 46.3332 45.6416L46.6871 42.4205C46.7264 42.1309 46.8709 41.8645 47.0944 41.6696C47.318 41.4746 47.6058 41.3639 47.9058 41.3574H53.8543C54.4601 41.3574 54.8773 41.8319 54.7859 42.4148L54.2667 45.6473C54.1765 46.229 53.6046 46.7047 52.9988 46.7047H52.5007" fill="black"/>
</g>
<defs>
<clipPath id="clip0_67_217">
<rect width="75" height="73" fill="white" transform="matrix(-1 0 0 1 75 0)"/>
</clipPath>
</defs>
</svg>
