<svg width="40" height="32" viewBox="0 0 40 32" fill="none" xmlns="http://www.w3.org/2000/svg">
<path d="M37.7791 22.7325H12.0234L13.3166 20.4131L34.8034 20.3788C35.53 20.3788 36.1528 19.9218 36.2826 19.2895L39.2582 4.62266C39.3361 4.23799 39.2193 3.84189 38.9339 3.54102C38.7928 3.39294 38.6168 3.27366 38.4181 3.19145C38.2195 3.10924 38.0029 3.06608 37.7834 3.06494L10.4491 2.98496L10.2155 2.01758C10.0685 1.40059 9.43703 0.951172 8.71907 0.951172H2.03687C1.63196 0.951172 1.24362 1.09282 0.957304 1.34495C0.670985 1.59708 0.510132 1.93904 0.510132 2.29561C0.510132 2.65217 0.670985 2.99413 0.957304 3.24626C1.24362 3.49839 1.63196 3.64004 2.03687 3.64004H7.48211L8.50282 7.91328L11.0157 18.6269L7.78054 23.2771C7.61253 23.4768 7.51134 23.7139 7.48841 23.9616C7.46548 24.2093 7.52173 24.4577 7.65079 24.6787C7.91029 25.1319 8.43362 25.4176 9.01318 25.4176H11.7293C11.1503 26.0948 10.8375 26.9197 10.8383 27.7675C10.8383 29.9231 12.8279 31.6751 15.2758 31.6751C17.7238 31.6751 19.7133 29.9231 19.7133 27.7675C19.7133 26.9182 19.3933 26.0917 18.8224 25.4176H25.79C25.211 26.0948 24.8982 26.9197 24.8991 27.7675C24.8991 29.9231 26.8886 31.6751 29.3366 31.6751C31.7845 31.6751 33.7741 29.9231 33.7741 27.7675C33.7741 26.9182 33.454 26.0917 32.8831 25.4176H37.7834C38.6224 25.4176 39.3101 24.8158 39.3101 24.0731C39.3076 23.7169 39.1452 23.3761 38.8584 23.1249C38.5716 22.8738 38.1836 22.7327 37.7791 22.7325ZM11.0849 5.63574L35.9885 5.7081L33.5492 17.7356L13.987 17.7661L11.0849 5.63574ZM15.2758 28.971C14.5233 28.971 13.9091 28.4302 13.9091 27.7675C13.9091 27.1048 14.5233 26.564 15.2758 26.564C16.0284 26.564 16.6426 27.1048 16.6426 27.7675C16.6426 28.0867 16.4986 28.3928 16.2423 28.6185C15.9859 28.8442 15.6383 28.971 15.2758 28.971ZM29.3366 28.971C28.584 28.971 27.9699 28.4302 27.9699 27.7675C27.9699 27.1048 28.584 26.564 29.3366 26.564C30.0891 26.564 30.7033 27.1048 30.7033 27.7675C30.7033 28.0867 30.5593 28.3928 30.303 28.6185C30.0467 28.8442 29.699 28.971 29.3366 28.971Z" fill="black"/>
</svg>
