<svg width="21" height="21" viewBox="0 0 21 21" fill="none" xmlns="http://www.w3.org/2000/svg">
<path d="M7.44643 3.51783V1.15928C7.44643 0.950915 7.52921 0.75108 7.67656 0.603741C7.82391 0.456401 8.02376 0.373627 8.23214 0.373627H14.5179C14.7262 0.373627 14.9261 0.456401 15.0734 0.603741C15.2208 0.75108 15.3036 0.950915 15.3036 1.15928V3.51783H21.5893C21.7977 3.51783 21.9975 3.60061 22.1449 3.74794C22.2922 3.89528 22.375 4.09512 22.375 4.30349C22.375 4.51186 22.2922 4.71169 22.1449 4.85903C21.9975 5.00637 21.7977 5.08915 21.5893 5.08915H1.16071C0.95233 5.08915 0.75248 5.00637 0.60513 4.85903C0.45778 4.71169 0.375 4.51186 0.375 4.30349C0.375 4.09512 0.45778 3.89528 0.60513 3.74794C0.75248 3.60061 0.95233 3.51783 1.16071 3.51783H7.44643ZM9.01786 3.51783H13.7321V1.94651H9.01786V3.51783ZM3.51786 22.3736C3.30947 22.3736 3.10962 22.2909 2.96227 22.1435C2.81492 21.9962 2.73214 21.7963 2.73214 21.588V5.08915H20.0179V21.588C20.0179 21.7963 19.9351 21.9962 19.7877 22.1435C19.6404 22.2909 19.4405 22.3736 19.2321 22.3736H3.51786ZM9.01786 17.6597C9.22624 17.6597 9.42609 17.5769 9.57344 17.4296C9.72079 17.2822 9.80357 17.0824 9.80357 16.874V9.01744C9.80357 8.80907 9.72079 8.60923 9.57344 8.46189C9.42609 8.31455 9.22624 8.23178 9.01786 8.23178C8.80947 8.23178 8.60962 8.31455 8.46227 8.46189C8.31492 8.60923 8.23214 8.80907 8.23214 9.01744V16.874C8.23214 17.0824 8.31492 17.2822 8.46227 17.4296C8.60962 17.5769 8.80947 17.6597 9.01786 17.6597ZM13.7321 17.6597C13.9405 17.6597 14.1404 17.5769 14.2877 17.4296C14.4351 17.2822 14.5179 17.0824 14.5179 16.874V9.01744C14.5179 8.80907 14.4351 8.60923 14.2877 8.46189C14.1404 8.31455 13.9405 8.23178 13.7321 8.23178C13.5238 8.23178 13.3239 8.31455 13.1766 8.46189C13.0292 8.60923 12.9464 8.80907 12.9464 9.01744V16.874C12.9464 17.0824 13.0292 17.2822 13.1766 17.4296C13.3239 17.5769 13.5238 17.6597 13.7321 17.6597Z" fill="black"/>
</svg>
