<svg width="21" height="23" viewBox="0 0 21 23" fill="none" xmlns="http://www.w3.org/2000/svg">
<path d="M7.44643 3.92855V1.35559C7.44643 1.12827 7.52921 0.910272 7.67656 0.749538C7.82391 0.588804 8.02376 0.498505 8.23214 0.498505H14.5179C14.7262 0.498505 14.9261 0.588804 15.0734 0.749538C15.2208 0.910272 15.3036 1.12827 15.3036 1.35559V3.92855H21.5893C21.7977 3.92855 21.9975 4.01884 22.1449 4.17958C22.2922 4.34031 22.375 4.55831 22.375 4.78563C22.375 5.01294 22.2922 5.23094 22.1449 5.39167C21.9975 5.55241 21.7977 5.64271 21.5893 5.64271H1.16071C0.95233 5.64271 0.75248 5.55241 0.60513 5.39167C0.45778 5.23094 0.375 5.01294 0.375 4.78563C0.375 4.55831 0.45778 4.34031 0.60513 4.17958C0.75248 4.01884 0.95233 3.92855 1.16071 3.92855H7.44643ZM9.01786 3.92855H13.7321V2.21438H9.01786V3.92855ZM3.51786 24.4985C3.30947 24.4985 3.10962 24.4082 2.96227 24.2475C2.81492 24.0867 2.73214 23.8687 2.73214 23.6414V5.64271H20.0179V23.6414C20.0179 23.8687 19.9351 24.0867 19.7877 24.2475C19.6404 24.4082 19.4405 24.4985 19.2321 24.4985H3.51786ZM9.01786 19.356C9.22624 19.356 9.42609 19.2657 9.57344 19.105C9.72079 18.9442 9.80357 18.7262 9.80357 18.4989V9.92812C9.80357 9.7008 9.72079 9.4828 9.57344 9.32207C9.42609 9.16133 9.22624 9.07103 9.01786 9.07103C8.80947 9.07103 8.60962 9.16133 8.46227 9.32207C8.31492 9.4828 8.23214 9.7008 8.23214 9.92812V18.4989C8.23214 18.7262 8.31492 18.9442 8.46227 19.105C8.60962 19.2657 8.80947 19.356 9.01786 19.356ZM13.7321 19.356C13.9405 19.356 14.1404 19.2657 14.2877 19.105C14.4351 18.9442 14.5179 18.7262 14.5179 18.4989V9.92812C14.5179 9.7008 14.4351 9.4828 14.2877 9.32207C14.1404 9.16133 13.9405 9.07103 13.7321 9.07103C13.5238 9.07103 13.3239 9.16133 13.1766 9.32207C13.0292 9.4828 12.9464 9.7008 12.9464 9.92812V18.4989C12.9464 18.7262 13.0292 18.9442 13.1766 19.105C13.3239 19.2657 13.5238 19.356 13.7321 19.356Z" fill="black"/>
</svg>
