<svg width="22" height="22" viewBox="0 0 22 22" fill="none" xmlns="http://www.w3.org/2000/svg">
<path d="M15.3771 3.5752L18.8222 7.45099C18.9674 7.61427 18.9674 7.88067 18.8222 8.04395L10.4806 17.4283L6.93611 17.8709C6.4625 17.9311 6.06146 17.4799 6.11493 16.9471L6.50833 12.9596L14.85 3.5752C14.9951 3.41192 15.2319 3.41192 15.3771 3.5752ZM21.5646 2.59122L19.7007 0.494345C19.1201 -0.15878 18.1767 -0.15878 17.5924 0.494345L16.2403 2.01544C16.0951 2.17872 16.0951 2.44513 16.2403 2.60841L19.6854 6.48419C19.8306 6.64747 20.0674 6.64747 20.2125 6.48419L21.5646 4.9631C22.1451 4.30567 22.1451 3.24435 21.5646 2.59122V2.59122ZM14.6667 14.876V19.2502H2.44444V5.5002H11.2215C11.3437 5.5002 11.4583 5.44435 11.5462 5.34981L13.074 3.63106C13.3642 3.3045 13.158 2.7502 12.7493 2.7502H1.83333C0.821181 2.7502 0 3.67403 0 4.8127V19.9377C0 21.0764 0.821181 22.0002 1.83333 22.0002H15.2778C16.2899 22.0002 17.1111 21.0764 17.1111 19.9377V13.1572C17.1111 12.6975 16.6184 12.4697 16.3281 12.792L14.8003 14.5108C14.7163 14.6096 14.6667 14.7385 14.6667 14.876Z" fill="black"/>
</svg>
