<svg width="22" height="24" viewBox="0 0 22 24" fill="none" xmlns="http://www.w3.org/2000/svg">
<path d="M15.366 16.1683L16.5882 14.6686C16.7792 14.4342 17.1115 14.5983 17.1115 14.9357V21.7503C17.1115 22.9923 16.2903 24 15.2781 24H1.83337C0.821198 24 0 22.9923 0 21.7503V5.25275C0 4.01074 0.821198 3.00308 1.83337 3.00308H12.2798C12.551 3.00308 12.6885 3.40614 12.4975 3.64517L11.2752 5.14495C11.218 5.21525 11.1416 5.25275 11.0575 5.25275H1.83337V21.7503H15.2781V16.4308C15.2781 16.3324 15.3087 16.2386 15.366 16.1683ZM21.3473 6.71035L11.3173 19.0179L7.86441 19.4866C6.86369 19.6225 6.01194 18.5867 6.1227 17.3494L6.50465 13.1125L16.5347 0.80496C17.4094 -0.26832 18.8226 -0.26832 19.6935 0.80496L21.3435 2.82966C22.2182 3.90294 22.2182 5.64175 21.3473 6.71035V6.71035ZM17.5736 8.15857L15.3545 5.43553L8.25782 14.1483L7.97899 17.2088L10.4731 16.8667L17.5736 8.15857ZM20.0487 4.42318L18.3987 2.39848C18.2421 2.20632 17.9862 2.20632 17.8334 2.39848L16.6531 3.8467L18.8723 6.56974L20.0525 5.12152C20.2053 4.92467 20.2053 4.61534 20.0487 4.42318V4.42318Z" fill="black"/>
</svg>
