<svg width="23" height="22" viewBox="0 0 23 22" fill="none" xmlns="http://www.w3.org/2000/svg">
<path fill-rule="evenodd" clip-rule="evenodd" d="M9.00002 1.00001C9.00021 0.791458 8.93519 0.588067 8.81406 0.418299C8.69293 0.248531 8.52175 0.120882 8.32448 0.0532154C8.12721 -0.014451 7.91373 -0.0187486 7.71389 0.040924C7.51406 0.100597 7.33789 0.221253 7.21002 0.386009L0.210023 9.38601C0.073468 9.56155 -0.000671387 9.77761 -0.000671387 10C-0.000671387 10.2224 0.073468 10.4385 0.210023 10.614L7.21002 19.614C7.33789 19.7788 7.51406 19.8994 7.71389 19.9591C7.91373 20.0188 8.12721 20.0145 8.32448 19.9468C8.52175 19.8791 8.69293 19.7515 8.81406 19.5817C8.93519 19.412 9.00021 19.2086 9.00002 19V15.01C14.379 15.122 16.963 16.143 18.261 17.253C19.495 18.308 19.721 19.549 19.956 20.849L20.017 21.184C20.0619 21.4237 20.1928 21.6388 20.3852 21.7887C20.5775 21.9386 20.818 22.0131 21.0614 21.9981C21.3048 21.9831 21.5344 21.8797 21.7069 21.7073C21.8794 21.5349 21.9829 21.3054 21.998 21.062C22.169 18.314 21.912 14.332 19.971 11.001C18.087 7.76801 14.694 5.28201 9.00002 5.02201V1.00001Z" fill="black"/>
</svg>
