<svg width="95" height="94" viewBox="0 0 95 94" fill="none" xmlns="http://www.w3.org/2000/svg">
<path d="M39.5833 20.8889H63.3333V26.1111H39.5833V20.8889Z" fill="black"/>
<path d="M39.5833 31.3333H63.3333V36.5555H39.5833V31.3333Z" fill="black"/>
<path d="M39.5833 41.7778H63.3333V47H39.5833V41.7778Z" fill="black"/>
<path d="M39.5833 52.2222H63.3333V57.4445H39.5833V52.2222Z" fill="black"/>
<path d="M39.5833 62.6667H63.3333V67.8889H39.5833V62.6667Z" fill="black"/>
<path d="M29.0278 20.8889H34.3055V26.1111H29.0278V20.8889Z" fill="black"/>
<path d="M29.0278 31.3333H34.3055V36.5555H29.0278V31.3333Z" fill="black"/>
<path d="M29.0278 41.7778H34.3055V47H29.0278V41.7778Z" fill="black"/>
<path d="M29.0278 52.2222H34.3055V57.4445H29.0278V52.2222Z" fill="black"/>
<path d="M29.0278 62.6667H34.3055V67.8889H29.0278V62.6667Z" fill="black"/>
<path d="M73.8889 5.22223H21.1111C19.7114 5.22223 18.3689 5.77243 17.3792 6.75178C16.3894 7.73114 15.8333 9.05943 15.8333 10.4445V83.5556C15.8333 84.9406 16.3894 86.2689 17.3792 87.2482C18.3689 88.2276 19.7114 88.7778 21.1111 88.7778H73.8889C75.2886 88.7778 76.6311 88.2276 77.6208 87.2482C78.6106 86.2689 79.1667 84.9406 79.1667 83.5556V10.4445C79.1667 9.05943 78.6106 7.73114 77.6208 6.75178C76.6311 5.77243 75.2886 5.22223 73.8889 5.22223ZM73.8889 83.5556H21.1111V10.4445H73.8889V83.5556Z" fill="black"/>
</svg>
