<svg width="47" height="43" viewBox="0 0 47 43" fill="none" xmlns="http://www.w3.org/2000/svg">
<path d="M38 29H34V25H32V29H28V31H32V35H34V31H38V29Z" fill="black"/>
<path d="M32 10H29V9C28.9984 8.47005 28.7872 7.96227 28.4125 7.58753C28.0377 7.2128 27.5299 7.00158 27 7H19C18.4701 7.00158 17.9623 7.2128 17.5875 7.58753C17.2128 7.96227 17.0016 8.47005 17 9V10H14C13.4701 10.0016 12.9623 10.2128 12.5875 10.5875C12.2128 10.9623 12.0016 11.4701 12 12V33C12.0016 33.5299 12.2128 34.0377 12.5875 34.4125C12.9623 34.7872 13.4701 34.9984 14 35H24V33H14V12H17V15H29V12H32V21H34V12C33.9984 11.4701 33.7872 10.9623 33.4125 10.5875C33.0377 10.2128 32.5299 10.0016 32 10ZM27 13H19V9H27V13Z" fill="black"/>
</svg>
