<svg width="40" height="37" viewBox="0 0 40 37" fill="none" xmlns="http://www.w3.org/2000/svg">
<path d="M38.776 0.750146C38.6599 0.482502 38.437 0.266593 38.1534 0.147336C37.8699 0.028079 37.5476 0.0146557 37.2537 0.109859C36.9597 0.205062 36.7167 0.401561 36.5752 0.658478C36.4337 0.915395 36.4046 1.21295 36.494 1.48924C38.352 6.43503 34.664 10.1286 31.852 12.107L30.716 10.5991C30.334 10.0934 29.48 9.67296 28.816 9.66555L22.44 9.69148C21.6611 9.71327 20.903 9.92959 20.246 10.3176L1.45797 22.5191C1.02096 22.8039 0.723612 23.2375 0.631024 23.7249C0.538437 24.2124 0.658157 24.7139 0.963973 25.1198L9.50197 36.434C10.142 37.2768 11.164 37.1749 12.076 36.5859L30.864 24.3825C31.404 24.0287 32.028 23.2656 32.248 22.6821L34.244 16.8564C34.464 16.2748 34.33 15.3875 33.948 14.8818L33.256 13.963C37.032 11.2827 40.952 6.54618 38.776 0.750146ZM30.034 18.0845C29.6878 18.3089 29.2974 18.4679 28.8849 18.5525C28.4724 18.6371 28.0459 18.6456 27.6299 18.5775C27.2138 18.5093 26.8164 18.366 26.4602 18.1555C26.104 17.9451 25.796 17.6717 25.554 17.351C25.0638 16.702 24.8717 15.8995 25.0198 15.1194C25.168 14.3394 25.6442 13.6457 26.344 13.1906C26.8926 12.8346 27.5476 12.6463 28.2174 12.6519C28.8873 12.6575 29.5384 12.8569 30.08 13.2221C29.536 13.5259 29.162 13.7037 29.092 13.7315C28.844 13.841 28.6436 14.0252 28.5236 14.254C28.4035 14.4828 28.3709 14.7425 28.4311 14.9907C28.4913 15.2389 28.6407 15.4608 28.8549 15.6201C29.0691 15.7793 29.3353 15.8665 29.61 15.8672C29.782 15.8672 29.958 15.8302 30.124 15.758C30.512 15.5875 30.928 15.3856 31.362 15.1467C31.4618 15.7025 31.3901 16.2731 31.1552 16.7929C30.9202 17.3126 30.5316 17.7604 30.034 18.0845Z" fill="black"/>
</svg>
