<svg width="40" height="37" viewBox="0 0 40 37" fill="none" xmlns="http://www.w3.org/2000/svg">
<path d="M38.776 0.749251C38.6599 0.481947 38.437 0.266314 38.1534 0.147208C37.8699 0.0281031 37.5476 0.014697 37.2537 0.109779C36.9597 0.204861 36.7167 0.401109 36.5752 0.657699C36.4337 0.914289 36.4046 1.21146 36.494 1.4874C38.352 6.4269 34.664 10.1158 31.852 12.0916L30.716 10.5857C30.334 10.0807 29.48 9.6607 28.816 9.6533L22.44 9.6792C21.6611 9.70096 20.903 9.91701 20.246 10.3045L1.45797 22.4904C1.02096 22.7749 0.723612 23.208 0.631024 23.6948C0.538437 24.1816 0.658157 24.6825 0.963973 25.0879L9.50197 36.3877C10.142 37.2294 11.164 37.1277 12.076 36.5394L30.864 24.3516C31.404 23.9982 32.028 23.236 32.248 22.6533L34.244 16.835C34.464 16.2541 34.33 15.368 33.948 14.8629L33.256 13.9453C37.032 11.2684 40.952 6.5379 38.776 0.749251ZM30.034 18.0616C29.6878 18.2857 29.2974 18.4445 28.8849 18.529C28.4724 18.6134 28.0459 18.6219 27.6299 18.5539C27.2138 18.4858 26.8164 18.3426 26.4602 18.1325C26.104 17.9223 25.796 17.6492 25.554 17.329C25.0638 16.6808 24.8717 15.8793 25.0198 15.1003C25.168 14.3212 25.6442 13.6284 26.344 13.1739C26.8926 12.8183 27.5476 12.6302 28.2174 12.6359C28.8873 12.6415 29.5384 12.8406 30.08 13.2053C29.536 13.5087 29.162 13.6863 29.092 13.7141C28.844 13.8234 28.6436 14.0074 28.5236 14.2359C28.4035 14.4644 28.3709 14.7238 28.4311 14.9717C28.4913 15.2196 28.6407 15.4412 28.8549 15.6003C29.0691 15.7593 29.3353 15.8463 29.61 15.8471C29.782 15.8471 29.958 15.8101 30.124 15.738C30.512 15.5678 30.928 15.3661 31.362 15.1275C31.4618 15.6826 31.3901 16.2525 31.1552 16.7716C30.9202 17.2906 30.5316 17.7378 30.034 18.0616Z" fill="black"/>
</svg>
