<svg width="42" height="39" viewBox="0 0 42 39" fill="none" xmlns="http://www.w3.org/2000/svg">
<path d="M37.8533 26.7325H13.4285L14.6549 24.4131L35.0314 24.3788C35.7205 24.3788 36.3111 23.9218 36.4342 23.2895L39.256 8.62266C39.3299 8.23799 39.2191 7.84189 38.9484 7.54102C38.8146 7.39294 38.6477 7.27366 38.4593 7.19145C38.2709 7.10924 38.0655 7.06608 37.8574 7.06494L11.9355 6.98496L11.714 6.01758C11.5746 5.40059 10.9758 4.95117 10.2949 4.95117H3.95798C3.57399 4.95117 3.20572 5.09282 2.9342 5.34495C2.66267 5.59708 2.51013 5.93904 2.51013 6.29561C2.51013 6.65217 2.66267 6.99413 2.9342 7.24626C3.20572 7.49839 3.57399 7.64004 3.95798 7.64004H9.12185L10.0898 11.9133L12.4728 22.6269L9.40486 27.2771C9.24553 27.4768 9.14957 27.7139 9.12782 27.9616C9.10608 28.2093 9.15942 28.4577 9.28181 28.6787C9.5279 29.1319 10.0242 29.4176 10.5738 29.4176H13.1496C12.6005 30.0948 12.3039 30.9197 12.3047 31.7675C12.3047 33.9231 14.1914 35.6751 16.5129 35.6751C18.8343 35.6751 20.7211 33.9231 20.7211 31.7675C20.7211 30.9182 20.4176 30.0917 19.8761 29.4176H26.4838C25.9346 30.0948 25.638 30.9197 25.6388 31.7675C25.6388 33.9231 27.5256 35.6751 29.847 35.6751C32.1685 35.6751 34.0552 33.9231 34.0552 31.7675C34.0552 30.9182 33.7517 30.0917 33.2103 29.4176H37.8574C38.6531 29.4176 39.3052 28.8158 39.3052 28.0731C39.3029 27.7169 39.1489 27.3761 38.8769 27.1249C38.6048 26.8738 38.2369 26.7327 37.8533 26.7325V26.7325ZM12.5385 9.63574L36.1552 9.7081L33.842 21.7356L15.2906 21.7661L12.5385 9.63574ZM16.5129 32.971C15.7992 32.971 15.2168 32.4302 15.2168 31.7675C15.2168 31.1048 15.7992 30.564 16.5129 30.564C17.2265 30.564 17.809 31.1048 17.809 31.7675C17.809 32.0867 17.6724 32.3928 17.4293 32.6185C17.1863 32.8442 16.8566 32.971 16.5129 32.971V32.971ZM29.847 32.971C29.1334 32.971 28.5509 32.4302 28.5509 31.7675C28.5509 31.1048 29.1334 30.564 29.847 30.564C30.5607 30.564 31.1431 31.1048 31.1431 31.7675C31.1431 32.0867 31.0066 32.3928 30.7635 32.6185C30.5205 32.8442 30.1908 32.971 29.847 32.971V32.971Z" fill="black"/>
</svg>
